<svg width="213" height="180" viewBox="0 0 213 180" fill="none" xmlns="http://www.w3.org/2000/svg">
<path d="M206.75 3.01005C205.072 1.67687 203.108 0.750729 201.011 0.304276C198.915 -0.142176 196.744 -0.0967929 194.668 0.436866L117.248 20.351V180L201.828 158.296C204.853 157.521 207.532 155.757 209.438 153.283C211.344 150.81 212.367 147.769 212.344 144.647V13.974C212.31 11.8409 211.788 9.74388 210.818 7.84352C209.849 5.94316 208.457 4.28982 206.75 3.01005ZM94.873 20.351L17.2302 0.436866C15.1861 -0.0364397 13.0626 -0.0511713 11.0121 0.393734C8.96169 0.83864 7.03524 1.73214 5.37115 3.01005C3.67542 4.33581 2.30861 6.03512 1.37717 7.97563C0.445724 9.91613 -0.0252108 12.0455 0.0010402 14.1978V144.647C0.00339916 147.75 1.03802 150.765 2.94196 153.216C4.84591 155.666 7.51099 157.414 10.5175 158.184L94.873 180V20.351Z" fill="#7C5EF1"/>
</svg>
