<svg width="1189" height="180" viewBox="0 0 1189 180" fill="none" xmlns="http://www.w3.org/2000/svg">
<path d="M299.824 56.608V98.368L272.368 56.608H255.952V124H272.368V82.432L299.824 124H316.24V56.608H299.824ZM352.812 103.936L340.428 70.432H322.091L343.884 122.176L331.596 149.44H349.26L382.86 70.432H365.1L352.812 103.936ZM388.796 124H405.212V70.432H388.796V124ZM397.052 64.864C402.812 64.864 406.748 60.928 406.748 56.032C406.748 51.04 402.812 47.104 397.052 47.104C391.196 47.104 387.26 51.04 387.26 56.032C387.26 60.928 391.196 64.864 397.052 64.864ZM417.108 124H433.524V52.96H417.108V124ZM445.421 124H461.837V70.432H445.421V124ZM453.677 64.864C459.437 64.864 463.373 60.928 463.373 56.032C463.373 51.04 459.437 47.104 453.677 47.104C447.821 47.104 443.885 51.04 443.885 56.032C443.885 60.928 447.821 64.864 453.677 64.864ZM473.733 124H490.149V94.912C490.149 87.616 494.181 83.584 500.421 83.584C506.661 83.584 510.693 87.616 510.693 94.912V124H527.013V92.704C527.013 78.304 518.853 69.856 506.661 69.856C499.269 69.856 493.413 73.024 490.149 77.632V52.96H473.733V124ZM575.573 103.456C575.573 108.256 572.405 110.752 566.933 110.752H554.837V95.872H566.741C572.213 95.872 575.573 98.656 575.573 103.456ZM573.941 76.864C573.941 81.472 570.965 83.872 565.589 83.872H554.837V69.76H565.589C570.965 69.76 573.941 72.256 573.941 76.864ZM592.181 105.664C592.181 97.984 587.093 91.072 579.221 89.44C585.749 87.52 590.645 82.24 590.645 74.08C590.645 63.424 582.485 56.608 568.757 56.608H538.421V124H569.813C584.021 124 592.181 116.8 592.181 105.664ZM598.438 97.12C598.438 114.016 608.902 124.768 621.958 124.768C629.926 124.768 635.59 121.12 638.566 116.416V124H654.982V70.432H638.566V78.016C635.686 73.312 630.022 69.664 622.054 69.664C608.902 69.664 598.438 80.224 598.438 97.12ZM638.566 97.216C638.566 105.76 633.094 110.464 626.854 110.464C620.71 110.464 615.142 105.664 615.142 97.12C615.142 88.576 620.71 83.968 626.854 83.968C633.094 83.968 638.566 88.672 638.566 97.216ZM691.53 103.936L679.146 70.432H660.81L682.602 122.176L670.314 149.44H687.978L721.578 70.432H703.818L691.53 103.936ZM724.251 97.12C724.251 114.016 734.715 124.768 747.771 124.768C755.739 124.768 761.403 121.12 764.379 116.416V124H780.795V70.432H764.379V78.016C761.499 73.312 755.835 69.664 747.867 69.664C734.715 69.664 724.251 80.224 724.251 97.12ZM764.379 97.216C764.379 105.76 758.907 110.464 752.667 110.464C746.523 110.464 740.955 105.664 740.955 97.12C740.955 88.576 746.523 83.968 752.667 83.968C758.907 83.968 764.379 88.672 764.379 97.216ZM809.087 99.136C809.087 89.92 813.599 87.232 821.375 87.232H825.887V69.856C818.687 69.856 812.831 73.696 809.087 79.36V70.432H792.671V124H809.087V99.136ZM839.301 144.064H868.101V130.72H854.661V49.6H868.101V36.352H839.301V144.064ZM879.407 97.12C879.407 114.016 889.871 124.768 903.023 124.768C910.895 124.768 916.559 121.216 919.535 116.32V124H935.951V52.96H919.535V77.824C916.271 72.928 910.127 69.664 903.023 69.664C889.871 69.664 879.407 80.224 879.407 97.12ZM919.535 97.216C919.535 105.76 914.063 110.464 907.823 110.464C901.679 110.464 896.111 105.664 896.111 97.12C896.111 88.576 901.679 83.968 907.823 83.968C914.063 83.968 919.535 88.672 919.535 97.216ZM1000.24 97.216C1000.24 80.224 988.147 69.664 972.403 69.664C956.755 69.664 944.563 80.224 944.563 97.216C944.563 114.208 956.467 124.768 972.211 124.768C987.955 124.768 1000.24 114.208 1000.24 97.216ZM961.267 97.216C961.267 88.096 966.451 83.872 972.403 83.872C978.163 83.872 983.539 88.096 983.539 97.216C983.539 106.24 978.067 110.56 972.211 110.56C966.259 110.56 961.267 106.24 961.267 97.216ZM1011.54 105.376C1011.54 119.296 1019.32 124 1030.46 124H1038.81V110.08H1032.95C1029.3 110.08 1027.96 108.736 1027.96 105.568V84.064H1038.71V70.432H1027.96V57.376H1011.54V70.432H1005.02V84.064H1011.54V105.376ZM1079.44 144.064H1050.64V130.72H1064.08V49.6H1050.64V36.352H1079.44V144.064ZM1096.89 124H1113.31V56.608H1096.89V124ZM1150.45 56.608H1125.2V124H1150.45C1171.95 124 1185.78 110.272 1185.78 90.304C1185.78 70.24 1171.95 56.608 1150.45 56.608ZM1141.62 109.792V70.624H1149.39C1161.78 70.624 1169.07 77.92 1169.07 90.304C1169.07 102.688 1161.78 109.792 1149.39 109.792H1141.62Z" fill="white"/>
<path d="M206.75 3.01005C205.072 1.67687 203.108 0.750729 201.011 0.304276C198.915 -0.142176 196.744 -0.0967929 194.668 0.436866L117.248 20.351V180L201.828 158.296C204.853 157.521 207.532 155.757 209.438 153.283C211.344 150.81 212.367 147.769 212.344 144.647V13.974C212.31 11.8409 211.788 9.74388 210.818 7.84352C209.849 5.94316 208.457 4.28982 206.75 3.01005ZM94.873 20.351L17.2302 0.436866C15.1861 -0.0364397 13.0626 -0.0511713 11.0121 0.393734C8.96169 0.83864 7.03524 1.73214 5.37115 3.01005C3.67542 4.33581 2.30861 6.03512 1.37717 7.97563C0.445724 9.91613 -0.0252108 12.0455 0.0010402 14.1978V144.647C0.00339916 147.75 1.03802 150.765 2.94196 153.216C4.84591 155.666 7.51099 157.414 10.5175 158.184L94.873 180V20.351Z" fill="white"/>
</svg>
